<svg xmlns="http://www.w3.org/2000/svg" width="512" height="512" viewBox="0 0 24 24" role="img" aria-labelledby="sanaq-logo-title">
  <title id="sanaq-logo-title">SANAQ</title>
  <rect x="1" y="1" width="22" height="22" rx="7" fill="#5B3FA8"/>
  <g fill="none" stroke="#FFFFFF" stroke-linecap="round" stroke-linejoin="round" stroke-width="1.7">
    <path d="m12 3-1.91 5.81a2 2 0 0 1-1.28 1.28L3 12l5.81 1.91a2 2 0 0 1 1.28 1.28L12 21l1.91-5.81a2 2 0 0 1 1.28-1.28L21 12l-5.81-1.91a2 2 0 0 1-1.28-1.28L12 3Z"/>
    <path d="M5 3v4M3 5h4M19 17v4M17 19h4"/>
  </g>
</svg>
